<svg width="38" height="38" viewBox="0 0 38 38" fill="none" xmlns="http://www.w3.org/2000/svg">
<path d="M33.5097 25.8208C32.1276 25.8208 31.5151 25.2868 30.6513 24.533C29.6932 23.7163 28.4996 22.6797 26.2537 22.6797C23.9921 22.6797 22.8142 23.7163 21.8561 24.533C20.9923 25.2868 20.3641 25.8208 18.982 25.8208C17.6156 25.8208 16.9874 25.2868 16.1236 24.533C15.1655 23.7163 13.9719 22.6797 11.726 22.6797C9.4644 22.6797 8.27077 23.7163 7.31273 24.533C6.44892 25.2868 5.83639 25.8208 4.45429 25.8208C3.81036 25.8208 3.27637 26.3548 3.27637 26.9987C3.27637 27.6584 3.81036 28.1767 4.45429 28.1767C6.7159 28.1767 7.89381 27.1558 8.85185 26.3234C9.71566 25.5695 10.3439 25.0355 11.726 25.0355C13.1081 25.0355 13.7206 25.5695 14.5844 26.3234C15.5425 27.1558 16.7361 28.1767 18.982 28.1767C21.2436 28.1767 22.4372 27.1558 23.3953 26.3234C24.2591 25.5695 24.8716 25.0355 26.2537 25.0355C27.6201 25.0355 28.2483 25.5695 29.1122 26.3234C30.0702 27.1558 31.2638 28.1767 33.5097 28.1767C34.1536 28.1767 34.6876 27.6584 34.6876 26.9987C34.6876 26.3548 34.1536 25.8208 33.5097 25.8208Z" fill="#141416"/>
<path d="M33.5097 19.353C32.1276 19.353 31.5151 18.8033 30.6513 18.0652C29.6932 17.2328 28.4996 16.2119 26.2537 16.2119C23.9921 16.2119 22.8142 17.2328 21.8561 18.0652C20.9923 18.8033 20.3641 19.353 18.982 19.353C17.6156 19.353 16.9874 18.8033 16.1236 18.0652C15.1655 17.2328 13.9719 16.2119 11.726 16.2119C9.4644 16.2119 8.27077 17.2328 7.31273 18.0652C6.44892 18.8033 5.83639 19.353 4.45429 19.353C3.81036 19.353 3.27637 19.8713 3.27637 20.531C3.27637 21.1749 3.81036 21.7089 4.45429 21.7089C6.7159 21.7089 7.89381 20.6723 8.85185 19.8399C9.71566 19.1018 10.3439 18.5678 11.726 18.5678C13.1081 18.5678 13.7206 19.1018 14.5844 19.8399C15.5425 20.6723 16.7361 21.7089 18.982 21.7089C21.2436 21.7089 22.4372 20.6723 23.3953 19.8399C24.2591 19.1018 24.8716 18.5678 26.2537 18.5678C27.6201 18.5678 28.2483 19.1018 29.1122 19.8399C30.0702 20.6723 31.2638 21.7089 33.5097 21.7089C34.1536 21.7089 34.6876 21.1749 34.6876 20.531C34.6876 19.8713 34.1536 19.353 33.5097 19.353Z" fill="#141416"/>
<path d="M4.45429 15.2704C6.7159 15.2704 7.89381 14.2338 8.85185 13.4171C9.71566 12.6633 10.3439 12.1293 11.726 12.1293C13.1081 12.1293 13.7206 12.6633 14.5844 13.4171C15.5425 14.2338 16.7361 15.2704 18.982 15.2704C21.2436 15.2704 22.4372 14.2338 23.3953 13.4171C24.2591 12.6633 24.8716 12.1293 26.2537 12.1293C27.6201 12.1293 28.2483 12.6633 29.1122 13.4171C30.0702 14.2338 31.2638 15.2704 33.5097 15.2704C34.1536 15.2704 34.6876 14.7364 34.6876 14.0925C34.6876 13.4329 34.1536 12.9146 33.5097 12.9146C32.1276 12.9146 31.5151 12.3806 30.6513 11.6267C29.6932 10.7943 28.4996 9.77344 26.2537 9.77344C23.9921 9.77344 22.8142 10.7943 21.8561 11.6267C20.9923 12.3806 20.3641 12.9146 18.982 12.9146C17.6156 12.9146 16.9874 12.3806 16.1236 11.6267C15.1655 10.7943 13.9719 9.77344 11.726 9.77344C9.4644 9.77344 8.27077 10.7943 7.31273 11.6267C6.44892 12.3806 5.83639 12.9146 4.45429 12.9146C3.81036 12.9146 3.27637 13.4329 3.27637 14.0925C3.27637 14.7364 3.81036 15.2704 4.45429 15.2704Z" fill="#141416"/>
</svg>
